{
    "asset" : {
        "generator" : "Khronos glTF Blender I/O v1.0.5",
        "version" : "2.0"
    },
    "scene" : 0,
    "scenes" : [
        {
            "name" : "Scene",
            "nodes" : [
                5
            ]
        }
    ],
    "nodes" : [
        {
            "name" : "Root"
        },
        {
            "name" : "Door2",
            "rotation" : [
                0,
                0.7038295269012451,
                0,
                0.7103689312934875
            ],
            "translation" : [
                -0.16841498017311096,
                0,
                0.1371326744556427
            ]
        },
        {
            "name" : "Door1",
            "rotation" : [
                0,
                -0.7071068286895752,
                0,
                0.7071067094802856
            ],
            "scale" : [
                1.0000001192092896,
                1,
                1.0000001192092896
            ],
            "translation" : [
                -0.17072847485542297,
                0,
                -0.1378021240234375
            ]
        },
        {
            "mesh" : 0,
            "name" : "307.Mesh",
            "skin" : 0
        },
        {
            "mesh" : 1,
            "name" : "Glass",
            "skin" : 0
        },
        {
            "children" : [
                3,
                4,
                0,
                1,
                2
            ],
            "name" : "307",
            "translation" : [
                -0.020000001415610313,
                0,
                0.05000000447034836
            ]
        }
    ],
    "animations" : [
        {
            "channels" : [
                {
                    "sampler" : 0,
                    "target" : {
                        "node" : 0,
                        "path" : "translation"
                    }
                },
                {
                    "sampler" : 1,
                    "target" : {
                        "node" : 0,
                        "path" : "rotation"
                    }
                },
                {
                    "sampler" : 2,
                    "target" : {
                        "node" : 0,
                        "path" : "scale"
                    }
                },
                {
                    "sampler" : 3,
                    "target" : {
                        "node" : 1,
                        "path" : "translation"
                    }
                },
                {
                    "sampler" : 4,
                    "target" : {
                        "node" : 1,
                        "path" : "rotation"
                    }
                },
                {
                    "sampler" : 5,
                    "target" : {
                        "node" : 1,
                        "path" : "scale"
                    }
                },
                {
                    "sampler" : 6,
                    "target" : {
                        "node" : 2,
                        "path" : "translation"
                    }
                },
                {
                    "sampler" : 7,
                    "target" : {
                        "node" : 2,
                        "path" : "rotation"
                    }
                },
                {
                    "sampler" : 8,
                    "target" : {
                        "node" : 2,
                        "path" : "scale"
                    }
                }
            ],
            "name" : "307.Open",
            "samplers" : [
                {
                    "input" : 13,
                    "interpolation" : "LINEAR",
                    "output" : 14
                },
                {
                    "input" : 13,
                    "interpolation" : "LINEAR",
                    "output" : 15
                },
                {
                    "input" : 13,
                    "interpolation" : "LINEAR",
                    "output" : 16
                },
                {
                    "input" : 13,
                    "interpolation" : "LINEAR",
                    "output" : 17
                },
                {
                    "input" : 13,
                    "interpolation" : "LINEAR",
                    "output" : 18
                },
                {
                    "input" : 13,
                    "interpolation" : "LINEAR",
                    "output" : 19
                },
                {
                    "input" : 13,
                    "interpolation" : "LINEAR",
                    "output" : 20
                },
                {
                    "input" : 13,
                    "interpolation" : "LINEAR",
                    "output" : 21
                },
                {
                    "input" : 13,
                    "interpolation" : "LINEAR",
                    "output" : 22
                }
            ]
        },
        {
            "channels" : [
                {
                    "sampler" : 0,
                    "target" : {
                        "node" : 0,
                        "path" : "translation"
                    }
                },
                {
                    "sampler" : 1,
                    "target" : {
                        "node" : 0,
                        "path" : "rotation"
                    }
                },
                {
                    "sampler" : 2,
                    "target" : {
                        "node" : 0,
                        "path" : "scale"
                    }
                },
                {
                    "sampler" : 3,
                    "target" : {
                        "node" : 1,
                        "path" : "translation"
                    }
                },
                {
                    "sampler" : 4,
                    "target" : {
                        "node" : 1,
                        "path" : "rotation"
                    }
                },
                {
                    "sampler" : 5,
                    "target" : {
                        "node" : 1,
                        "path" : "scale"
                    }
                },
                {
                    "sampler" : 6,
                    "target" : {
                        "node" : 2,
                        "path" : "translation"
                    }
                },
                {
                    "sampler" : 7,
                    "target" : {
                        "node" : 2,
                        "path" : "rotation"
                    }
                },
                {
                    "sampler" : 8,
                    "target" : {
                        "node" : 2,
                        "path" : "scale"
                    }
                }
            ],
            "name" : "307.Idle",
            "samplers" : [
                {
                    "input" : 23,
                    "interpolation" : "LINEAR",
                    "output" : 24
                },
                {
                    "input" : 23,
                    "interpolation" : "LINEAR",
                    "output" : 25
                },
                {
                    "input" : 23,
                    "interpolation" : "LINEAR",
                    "output" : 26
                },
                {
                    "input" : 23,
                    "interpolation" : "LINEAR",
                    "output" : 27
                },
                {
                    "input" : 23,
                    "interpolation" : "LINEAR",
                    "output" : 28
                },
                {
                    "input" : 23,
                    "interpolation" : "LINEAR",
                    "output" : 29
                },
                {
                    "input" : 23,
                    "interpolation" : "LINEAR",
                    "output" : 30
                },
                {
                    "input" : 23,
                    "interpolation" : "LINEAR",
                    "output" : 31
                },
                {
                    "input" : 23,
                    "interpolation" : "LINEAR",
                    "output" : 32
                }
            ]
        }
    ],
    "materials" : [
        {
            "doubleSided" : true,
            "name" : "307",
            "pbrMetallicRoughness" : {
                "baseColorFactor" : [
                    0.800000011920929,
                    0.800000011920929,
                    0.800000011920929,
                    1
                ],
                "metallicFactor" : 0,
                "roughnessFactor" : 0.5
            }
        },
        {
            "doubleSided" : true,
            "name" : "Glass",
            "pbrMetallicRoughness" : {
                "baseColorFactor" : [
                    0.800000011920929,
                    0.800000011920929,
                    0.800000011920929,
                    1
                ],
                "metallicFactor" : 0,
                "roughnessFactor" : 0.5
            }
        }
    ],
    "meshes" : [
        {
            "name" : "307.Mesh",
            "primitives" : [
                {
                    "attributes" : {
                        "POSITION" : 0,
                        "NORMAL" : 1,
                        "TEXCOORD_0" : 2,
                        "JOINTS_0" : 3,
                        "WEIGHTS_0" : 4
                    },
                    "indices" : 5,
                    "material" : 0
                }
            ]
        },
        {
            "name" : "Glass",
            "primitives" : [
                {
                    "attributes" : {
                        "POSITION" : 7,
                        "NORMAL" : 8,
                        "TEXCOORD_0" : 9,
                        "JOINTS_0" : 10,
                        "WEIGHTS_0" : 11
                    },
                    "indices" : 12,
                    "material" : 1
                }
            ]
        }
    ],
    "skins" : [
        {
            "inverseBindMatrices" : 6,
            "joints" : [
                0,
                1,
                2
            ],
            "name" : "307"
        }
    ],
    "accessors" : [
        {
            "bufferView" : 0,
            "componentType" : 5126,
            "count" : 7233,
            "max" : [
                0.16124647855758667,
                0.2936060428619385,
                0.5262353420257568
            ],
            "min" : [
                -0.30836251378059387,
                -0.2750103175640106,
                -0.42956456542015076
            ],
            "type" : "VEC3"
        },
        {
            "bufferView" : 1,
            "componentType" : 5126,
            "count" : 7233,
            "type" : "VEC3"
        },
        {
            "bufferView" : 2,
            "componentType" : 5126,
            "count" : 7233,
            "type" : "VEC2"
        },
        {
            "bufferView" : 3,
            "componentType" : 5123,
            "count" : 7233,
            "type" : "VEC4"
        },
        {
            "bufferView" : 4,
            "componentType" : 5126,
            "count" : 7233,
            "type" : "VEC4"
        },
        {
            "bufferView" : 5,
            "componentType" : 5123,
            "count" : 22770,
            "type" : "SCALAR"
        },
        {
            "bufferView" : 6,
            "componentType" : 5126,
            "count" : 3,
            "type" : "MAT4"
        },
        {
            "bufferView" : 7,
            "componentType" : 5126,
            "count" : 204,
            "max" : [
                0.06732835620641708,
                0.19554658234119415,
                0.5001100301742554
            ],
            "min" : [
                -0.2747615873813629,
                -0.2238437533378601,
                0.17638134956359863
            ],
            "type" : "VEC3"
        },
        {
            "bufferView" : 8,
            "componentType" : 5126,
            "count" : 204,
            "type" : "VEC3"
        },
        {
            "bufferView" : 9,
            "componentType" : 5126,
            "count" : 204,
            "type" : "VEC2"
        },
        {
            "bufferView" : 10,
            "componentType" : 5123,
            "count" : 204,
            "type" : "VEC4"
        },
        {
            "bufferView" : 11,
            "componentType" : 5126,
            "count" : 204,
            "type" : "VEC4"
        },
        {
            "bufferView" : 12,
            "componentType" : 5123,
            "count" : 402,
            "type" : "SCALAR"
        },
        {
            "bufferView" : 13,
            "componentType" : 5126,
            "count" : 41,
            "max" : [
                1.6666666666666667
            ],
            "min" : [
                0
            ],
            "type" : "SCALAR"
        },
        {
            "bufferView" : 14,
            "componentType" : 5126,
            "count" : 41,
            "type" : "VEC3"
        },
        {
            "bufferView" : 15,
            "componentType" : 5126,
            "count" : 41,
            "type" : "VEC4"
        },
        {
            "bufferView" : 16,
            "componentType" : 5126,
            "count" : 41,
            "type" : "VEC3"
        },
        {
            "bufferView" : 17,
            "componentType" : 5126,
            "count" : 41,
            "type" : "VEC3"
        },
        {
            "bufferView" : 18,
            "componentType" : 5126,
            "count" : 41,
            "type" : "VEC4"
        },
        {
            "bufferView" : 19,
            "componentType" : 5126,
            "count" : 41,
            "type" : "VEC3"
        },
        {
            "bufferView" : 20,
            "componentType" : 5126,
            "count" : 41,
            "type" : "VEC3"
        },
        {
            "bufferView" : 21,
            "componentType" : 5126,
            "count" : 41,
            "type" : "VEC4"
        },
        {
            "bufferView" : 22,
            "componentType" : 5126,
            "count" : 41,
            "type" : "VEC3"
        },
        {
            "bufferView" : 23,
            "componentType" : 5126,
            "count" : 11,
            "max" : [
                0.4166666666666667
            ],
            "min" : [
                0
            ],
            "type" : "SCALAR"
        },
        {
            "bufferView" : 24,
            "componentType" : 5126,
            "count" : 11,
            "type" : "VEC3"
        },
        {
            "bufferView" : 25,
            "componentType" : 5126,
            "count" : 11,
            "type" : "VEC4"
        },
        {
            "bufferView" : 26,
            "componentType" : 5126,
            "count" : 11,
            "type" : "VEC3"
        },
        {
            "bufferView" : 27,
            "componentType" : 5126,
            "count" : 11,
            "type" : "VEC3"
        },
        {
            "bufferView" : 28,
            "componentType" : 5126,
            "count" : 11,
            "type" : "VEC4"
        },
        {
            "bufferView" : 29,
            "componentType" : 5126,
            "count" : 11,
            "type" : "VEC3"
        },
        {
            "bufferView" : 30,
            "componentType" : 5126,
            "count" : 11,
            "type" : "VEC3"
        },
        {
            "bufferView" : 31,
            "componentType" : 5126,
            "count" : 11,
            "type" : "VEC4"
        },
        {
            "bufferView" : 32,
            "componentType" : 5126,
            "count" : 11,
            "type" : "VEC3"
        }
    ],
    "bufferViews" : [
        {
            "buffer" : 0,
            "byteLength" : 86796,
            "byteOffset" : 0
        },
        {
            "buffer" : 0,
            "byteLength" : 86796,
            "byteOffset" : 86796
        },
        {
            "buffer" : 0,
            "byteLength" : 57864,
            "byteOffset" : 173592
        },
        {
            "buffer" : 0,
            "byteLength" : 57864,
            "byteOffset" : 231456
        },
        {
            "buffer" : 0,
            "byteLength" : 115728,
            "byteOffset" : 289320
        },
        {
            "buffer" : 0,
            "byteLength" : 45540,
            "byteOffset" : 405048
        },
        {
            "buffer" : 0,
            "byteLength" : 192,
            "byteOffset" : 450588
        },
        {
            "buffer" : 0,
            "byteLength" : 2448,
            "byteOffset" : 450780
        },
        {
            "buffer" : 0,
            "byteLength" : 2448,
            "byteOffset" : 453228
        },
        {
            "buffer" : 0,
            "byteLength" : 1632,
            "byteOffset" : 455676
        },
        {
            "buffer" : 0,
            "byteLength" : 1632,
            "byteOffset" : 457308
        },
        {
            "buffer" : 0,
            "byteLength" : 3264,
            "byteOffset" : 458940
        },
        {
            "buffer" : 0,
            "byteLength" : 804,
            "byteOffset" : 462204
        },
        {
            "buffer" : 0,
            "byteLength" : 164,
            "byteOffset" : 463008
        },
        {
            "buffer" : 0,
            "byteLength" : 492,
            "byteOffset" : 463172
        },
        {
            "buffer" : 0,
            "byteLength" : 656,
            "byteOffset" : 463664
        },
        {
            "buffer" : 0,
            "byteLength" : 492,
            "byteOffset" : 464320
        },
        {
            "buffer" : 0,
            "byteLength" : 492,
            "byteOffset" : 464812
        },
        {
            "buffer" : 0,
            "byteLength" : 656,
            "byteOffset" : 465304
        },
        {
            "buffer" : 0,
            "byteLength" : 492,
            "byteOffset" : 465960
        },
        {
            "buffer" : 0,
            "byteLength" : 492,
            "byteOffset" : 466452
        },
        {
            "buffer" : 0,
            "byteLength" : 656,
            "byteOffset" : 466944
        },
        {
            "buffer" : 0,
            "byteLength" : 492,
            "byteOffset" : 467600
        },
        {
            "buffer" : 0,
            "byteLength" : 44,
            "byteOffset" : 468092
        },
        {
            "buffer" : 0,
            "byteLength" : 132,
            "byteOffset" : 468136
        },
        {
            "buffer" : 0,
            "byteLength" : 176,
            "byteOffset" : 468268
        },
        {
            "buffer" : 0,
            "byteLength" : 132,
            "byteOffset" : 468444
        },
        {
            "buffer" : 0,
            "byteLength" : 132,
            "byteOffset" : 468576
        },
        {
            "buffer" : 0,
            "byteLength" : 176,
            "byteOffset" : 468708
        },
        {
            "buffer" : 0,
            "byteLength" : 132,
            "byteOffset" : 468884
        },
        {
            "buffer" : 0,
            "byteLength" : 132,
            "byteOffset" : 469016
        },
        {
            "buffer" : 0,
            "byteLength" : 176,
            "byteOffset" : 469148
        },
        {
            "buffer" : 0,
            "byteLength" : 132,
            "byteOffset" : 469324
        }
    ],
    "buffers" : [
        {
            "byteLength" : 469456,
            "uri" : "data:application/octet-stream;base64,"
        }
    ]
}
